<!DOCTYPE svg PUBLIC "-//W3C//DTD SVG 1.1//EN" "http://www.w3.org/Graphics/SVG/1.1/DTD/svg11.dtd">
<!-- Uploaded to: SVG Repo, www.svgrepo.com, Transformed by: SVG Repo Mixer Tools -->
<svg fill="#000000" width="64px" height="64px" viewBox="-6.72 -6.72 37.44 37.44" id="check-mark-square-2" xmlns="http://www.w3.org/2000/svg" class="icon line" transform="matrix(1, 0, 0, 1, 0, 0)rotate(0)">
<g id="SVGRepo_bgCarrier" stroke-width="0" transform="translate(0,0), scale(1)">
<path transform="translate(-6.72, -6.72), scale(1.17)" d="M16,28.198227274630753C18.72962280031142,28.53317247746373,21.33253353080933,30.60730260779,23.954462553241424,29.777533289118203C26.60474225086076,28.938791751811678,28.54086582680718,26.429416749700117,29.647249860727744,23.879243380789248C30.711384027775196,21.426454357671975,30.38765539990266,18.634530313326174,29.931798464485578,16C29.526192810897292,13.65588651479629,28.2798435862531,11.655280468851073,27.168191540422345,9.55204160777586C26.014675018931076,7.369595415199783,25.296959307468327,4.815939678988876,23.27333122704711,3.4022207744771347C21.199881388573605,1.9536960862860762,18.477315069897763,1.2396514344125538,16,1.7498749632920543C13.615253125286,2.241033306728423,12.40060890789133,4.8967079326762315,10.272587975753208,6.079831378123638C8.095597415296698,7.290180643817143,4.88554923640732,6.72195788646591,3.4262551938341197,8.740545051438461C1.982545719571859,10.737574662795137,3.0899108240344,13.535796074208243,3.1010160850627084,15.999999999999998C3.112068758333644,18.452534955757287,2.391801108947856,21.029591099780625,3.491516777803902,23.221776155488822C4.607155112120916,25.44570162397743,6.786215312891904,27.034787353596997,9.098043582269117,27.954539187135957C11.274135766299391,28.820288950093403,13.675448847398533,27.91298740294779,16,28.198227274630753" fill="#ffe5ad" strokewidth="0"/>
</g>
<g id="SVGRepo_tracerCarrier" stroke-linecap="round" stroke-linejoin="round" stroke="#CCCCCC" stroke-width="0.24000000000000005"/>
<g id="SVGRepo_iconCarrier">
<path id="primary" d="M21,11v9a1,1,0,0,1-1,1H4a1,1,0,0,1-1-1V4A1,1,0,0,1,4,3H16" style="fill: none; stroke: #000000; stroke-linecap: round; stroke-linejoin: round; stroke-width: 1.5;"/>
<polyline id="primary-2" data-name="primary" points="21 5 12 14 8 10" style="fill: none; stroke: #000000; stroke-linecap: round; stroke-linejoin: round; stroke-width: 1.5;"/>
</g>
</svg>