<?xml version="1.0" standalone="no"?>
<!DOCTYPE svg PUBLIC "-//W3C//DTD SVG 20010904//EN"
 "http://www.w3.org/TR/2001/REC-SVG-20010904/DTD/svg10.dtd">
<svg version="1.0" xmlns="http://www.w3.org/2000/svg"
 width="1278.000000pt" height="1278.000000pt" viewBox="0 0 1278.000000 1278.000000"
 preserveAspectRatio="xMidYMid meet">
<metadata>
Created by potrace 1.14, written by Peter Selinger 2001-2017
</metadata>
<g transform="translate(0.000000,1278.000000) scale(0.100000,-0.100000)"
fill="#000000" stroke="none">
<path d="M5858 12734 c-295 -51 -538 -292 -583 -579 -13 -82 -14 -110 -30
-780 -2 -82 -6 -256 -10 -385 -3 -129 -8 -309 -10 -400 -2 -91 -7 -264 -10
-385 -13 -494 -15 -569 -20 -790 -3 -126 -7 -300 -10 -385 -2 -85 -7 -258 -10
-385 -3 -126 -8 -297 -10 -380 -2 -82 -7 -262 -10 -400 -4 -137 -8 -308 -10
-380 -2 -71 -4 -157 -5 -190 l-1 -60 -14 38 c-48 130 -119 560 -140 847 -3 47
-8 105 -10 130 -5 55 -16 245 -20 360 -2 47 -7 173 -11 280 -11 265 -11 856
-1 1015 11 163 10 200 -9 271 -46 178 -162 324 -318 402 -69 35 -88 42 -159
57 -242 50 -502 -83 -615 -316 -68 -138 -82 -226 -67 -439 5 -84 15 -258 30
-545 3 -55 7 -129 10 -165 2 -36 7 -126 10 -200 4 -74 8 -157 10 -185 2 -27 6
-104 9 -170 4 -66 9 -147 11 -180 2 -33 7 -121 10 -195 4 -74 8 -164 10 -200
3 -36 7 -114 10 -175 3 -60 7 -144 10 -185 2 -41 7 -124 10 -185 3 -60 8 -140
10 -177 2 -36 7 -128 10 -205 11 -282 22 -357 72 -518 130 -419 502 -754 938
-845 87 -18 95 -20 93 -28 -2 -6 12 -114 17 -132 0 -3 5 -34 9 -70 4 -36 10
-74 11 -85 2 -11 6 -38 10 -61 3 -22 8 -52 10 -65 2 -13 9 -60 15 -104 6 -44
13 -91 15 -105 2 -14 7 -44 10 -67 6 -43 9 -294 20 -1513 3 -366 8 -858 10
-1095 3 -236 7 -697 10 -1024 3 -326 7 -605 9 -620 3 -14 8 -46 11 -71 20
-143 107 -321 210 -426 94 -97 231 -177 355 -210 86 -22 237 -27 327 -9 252
49 468 220 578 457 60 130 78 214 91 428 3 41 7 413 9 825 1 413 5 760 8 771
24 98 71 194 133 270 120 148 276 242 574 349 58 21 130 50 161 66 216 108
489 360 808 744 211 255 331 456 410 691 48 143 99 357 117 489 3 28 8 59 10
70 2 11 7 52 10 90 3 39 8 73 10 77 7 12 18 321 18 503 -1 164 -10 407 -19
495 -1 19 -6 76 -10 125 -3 50 -8 104 -10 120 -2 17 -7 57 -10 90 -3 33 -8 74
-10 90 -3 17 -9 68 -15 115 -13 103 -39 287 -45 315 -2 11 -7 42 -10 69 -3 27
-8 52 -9 55 -2 3 -7 30 -10 60 -4 29 -8 56 -10 60 -2 3 -7 31 -11 61 -7 56
-10 76 -19 120 -8 42 -28 154 -32 175 -2 19 -28 147 -38 190 -2 11 -11 55 -20
99 -25 120 -104 442 -127 521 -110 366 -140 433 -225 504 -73 60 -197 107
-279 104 -178 -5 -315 -93 -393 -253 l-37 -75 0 -265 c1 -235 8 -465 20 -600
2 -25 7 -90 10 -145 3 -55 8 -125 10 -155 2 -30 7 -89 10 -130 3 -41 8 -106
10 -145 3 -38 8 -90 10 -115 2 -25 7 -76 10 -115 3 -38 8 -99 11 -135 3 -36 7
-87 10 -115 6 -76 14 -165 19 -215 3 -25 8 -76 10 -115 3 -38 7 -86 10 -105
43 -344 51 -725 19 -985 -10 -86 -52 -286 -78 -372 -153 -511 -474 -885 -925
-1077 l-81 -35 -1 77 c-3 171 -15 1754 -24 3062 -11 1576 -14 1931 -30 4015
-6 809 -6 816 -20 891 -41 216 -171 395 -365 502 -52 28 -130 59 -175 68 -11
2 -33 6 -48 10 -55 12 -153 11 -229 -2z m213 -179 c23 -8 21 55 21 -915 0
-657 -8 -1607 -17 -2110 -10 -519 -22 -1074 -30 -1340 -2 -85 -8 -274 -12
-420 -10 -343 -10 -1794 0 -2150 10 -353 19 -579 32 -825 2 -38 7 -135 10
-215 4 -80 9 -172 10 -205 2 -33 6 -112 9 -175 3 -63 8 -151 11 -195 3 -44 7
-132 10 -195 3 -63 7 -158 10 -210 4 -90 9 -193 20 -475 5 -121 12 -388 21
-760 5 -235 5 -1623 -1 -1840 -2 -82 -4 -173 -4 -201 l-1 -51 -62 -18 c-35
-10 -92 -20 -128 -22 -68 -5 -180 10 -189 26 -5 7 -6 2410 -2 3806 0 160 -2
335 -4 390 -9 226 -30 524 -40 585 -3 14 -7 53 -9 85 -3 33 -7 80 -10 105 -8
66 -24 216 -31 285 -3 33 -8 78 -10 100 -15 133 -21 557 -11 670 2 22 7 79 11
127 3 49 8 97 10 107 2 11 6 48 10 83 3 35 8 74 10 88 3 14 7 39 9 55 2 17 9
57 15 90 6 33 13 78 16 100 4 22 8 51 10 65 3 14 7 54 10 90 3 36 8 79 10 95
7 53 15 338 20 735 3 212 8 500 10 640 5 285 13 744 20 1195 3 165 7 435 10
600 3 165 7 435 10 600 3 165 7 426 10 580 2 154 7 444 11 645 3 201 9 368 12
372 16 15 148 17 193 3z m-386 -452 c-12 -720 -14 -860 -20 -1188 -3 -181 -7
-463 -10 -625 -3 -162 -7 -430 -10 -595 -3 -165 -7 -433 -10 -595 -7 -431 -14
-850 -20 -1235 -10 -637 -15 -713 -60 -980 -13 -78 -35 -229 -40 -275 -3 -30
-8 -71 -10 -90 -15 -121 -27 -323 -27 -480 0 -138 10 -391 17 -428 1 -9 6 -60
10 -112 4 -52 8 -97 10 -100 2 -3 6 -39 10 -80 4 -41 8 -82 10 -90 2 -8 6 -49
10 -90 3 -41 8 -86 10 -100 2 -14 6 -59 10 -100 3 -41 8 -95 10 -120 5 -56 14
-219 21 -370 2 -63 4 -243 4 -400 -1 -157 -1 -1053 -2 -1992 -1 -1605 -2
-1706 -18 -1698 -36 19 -119 122 -153 188 -53 105 -74 204 -77 357 -3 205 -8
692 -15 1435 -7 745 -10 1080 -20 2054 -3 352 -8 642 -10 645 -2 4 -6 30 -10
60 -4 30 -8 62 -10 71 -2 9 -6 41 -10 71 -3 30 -8 65 -10 79 -6 35 -11 67 -30
200 -16 116 -18 125 -32 215 -12 73 -6 250 12 380 2 17 7 68 10 115 3 47 17
130 30 185 13 55 27 123 30 150 4 28 8 57 10 65 9 35 16 182 20 440 3 151 7
349 10 440 2 91 7 271 10 400 3 129 8 305 10 390 3 85 7 249 10 363 5 210 11
440 20 802 6 229 12 443 20 765 8 333 14 551 20 780 3 113 7 293 10 400 17
713 16 693 42 775 24 79 91 181 156 240 33 30 62 55 65 55 2 0 1 -170 -3 -377z
m676 289 c79 -90 99 -126 128 -231 16 -58 20 -107 21 -288 1 -120 4 -366 5
-548 2 -181 6 -721 9 -1200 4 -478 9 -1126 11 -1440 3 -313 7 -903 10 -1310
23 -3099 26 -3479 30 -3483 6 -6 116 18 200 44 162 51 400 184 551 309 365
302 617 782 680 1295 3 25 7 56 9 70 24 133 24 623 0 773 -2 12 -6 58 -10 102
-3 44 -8 94 -10 110 -2 17 -7 62 -10 100 -3 39 -8 88 -10 110 -3 22 -7 72 -10
110 -3 39 -8 88 -10 110 -2 22 -7 76 -10 120 -3 44 -8 96 -10 115 -3 19 -7 69
-10 110 -8 117 -14 200 -19 265 -3 33 -8 101 -11 150 -3 50 -8 113 -10 140 -3
28 -7 100 -11 160 -3 61 -8 130 -9 155 -2 25 -6 176 -10 335 -5 262 -4 295 12
339 33 90 32 92 115 -229 62 -240 155 -667 183 -835 5 -30 15 -91 30 -180 6
-29 33 -220 40 -270 5 -34 10 -78 20 -170 3 -25 8 -61 10 -80 3 -19 7 -71 10
-115 4 -44 8 -96 10 -115 22 -195 23 -881 0 -998 -1 -9 -6 -49 -9 -87 -4 -39
-8 -80 -10 -90 -2 -11 -7 -45 -11 -75 -4 -30 -9 -64 -11 -75 -2 -10 -6 -37
-10 -60 -3 -22 -18 -98 -34 -170 -123 -552 -359 -997 -696 -1314 -291 -273
-668 -466 -1098 -562 -49 -11 -90 -18 -92 -16 -2 2 -6 52 -9 113 -2 60 -7 152
-10 204 -3 52 -7 145 -10 205 -6 124 -13 259 -20 385 -3 47 -7 130 -10 185 -3
55 -7 150 -11 210 -17 331 -33 861 -39 1260 -5 341 -5 1095 0 1345 6 287 15
682 20 830 10 301 32 1454 40 2090 2 118 4 655 5 1192 l2 978 28 -20 c15 -10
42 -37 61 -58z m-1811 -1980 c95 -55 163 -139 200 -246 24 -70 25 -87 14 -251
-26 -407 5 -1504 57 -1965 5 -47 12 -107 15 -135 3 -27 7 -57 9 -65 2 -8 7
-40 10 -70 3 -30 8 -62 10 -70 2 -8 7 -35 10 -60 4 -25 13 -74 22 -110 8 -36
17 -76 19 -90 10 -56 68 -230 100 -299 19 -41 53 -99 75 -128 35 -44 41 -60
41 -96 -1 -55 -12 -177 -17 -197 -2 -8 -7 -35 -10 -59 -4 -24 -12 -60 -18 -80
-11 -31 -16 -36 -40 -33 -186 22 -361 329 -462 812 -47 223 -82 460 -109 750
-15 159 -20 216 -31 410 -26 446 -34 1186 -19 1690 3 129 7 258 8 286 l1 51
35 -10 c19 -5 55 -21 80 -35z m-294 21 c-22 -74 -23 -1456 -1 -1803 2 -30 6
-109 10 -175 4 -66 9 -144 10 -174 4 -59 14 -178 20 -231 2 -19 7 -64 10 -100
3 -36 10 -99 15 -140 5 -41 12 -97 15 -125 4 -27 18 -117 32 -200 14 -82 27
-163 29 -178 2 -16 6 -32 9 -37 3 -4 7 -25 11 -46 20 -126 112 -417 172 -543
108 -230 262 -377 412 -397 l48 -6 -3 -47 c-2 -25 -6 -80 -10 -121 -10 -97
-12 -129 -14 -162 -1 -34 -6 -34 -116 -3 -302 88 -540 283 -673 550 -84 169
-116 313 -127 575 -3 80 -8 177 -10 215 -2 39 -7 120 -10 180 -12 250 -15 304
-19 380 -3 44 -8 127 -11 185 -3 58 -8 139 -10 180 -3 41 -7 122 -10 180 -3
58 -7 143 -10 190 -3 47 -7 130 -10 185 -6 124 -14 267 -20 365 -3 41 -7 127
-10 190 -3 63 -7 149 -10 190 -2 41 -7 129 -10 195 -4 66 -8 138 -10 160 -9
92 -6 234 5 275 33 121 122 235 222 284 63 30 81 32 74 9z m3947 -1372 c44
-20 87 -56 112 -94 16 -25 94 -259 121 -362 39 -151 106 -417 110 -439 2 -16
18 -93 34 -170 30 -149 65 -331 74 -381 2 -16 7 -48 11 -70 3 -22 10 -62 15
-90 5 -27 12 -68 15 -90 3 -23 7 -50 9 -61 2 -12 7 -45 11 -75 4 -30 8 -56 10
-59 2 -3 6 -34 10 -70 3 -35 8 -67 10 -70 1 -3 6 -32 10 -65 3 -33 8 -75 11
-92 2 -18 6 -48 8 -65 3 -18 8 -60 11 -93 3 -33 8 -73 10 -90 2 -16 6 -64 10
-105 3 -41 8 -95 10 -120 22 -236 22 -844 1 -980 -3 -14 -7 -56 -11 -93 -3
-37 -8 -76 -10 -85 -1 -9 -6 -39 -9 -67 -4 -27 -11 -68 -16 -90 -5 -22 -12
-56 -15 -75 -10 -58 -54 -215 -86 -307 -75 -211 -146 -330 -343 -578 -367
-459 -661 -714 -911 -788 -167 -49 -408 -176 -531 -279 -169 -141 -286 -352
-309 -556 -5 -45 -5 -233 0 -322 10 -165 4 -900 -10 -1230 -10 -233 -55 -365
-175 -508 -19 -23 -37 -42 -41 -42 -4 0 -6 78 -3 173 6 229 5 1572 -1 1812 -5
224 -13 494 -21 731 l-6 171 39 7 c328 60 712 213 973 389 131 88 219 160 334
273 352 347 595 822 722 1409 12 58 43 227 49 275 3 25 8 56 10 70 2 14 7 54
10 90 4 36 9 72 10 80 25 136 26 848 1 1115 -2 17 -7 68 -11 115 -4 47 -9 92
-10 100 -2 8 -6 49 -10 90 -3 41 -8 82 -10 90 -2 8 -7 38 -10 65 -3 28 -7 61
-10 74 -2 12 -7 43 -9 68 -6 50 -54 330 -61 353 -2 8 -6 31 -9 50 -11 72 -60
308 -83 395 -8 33 -17 71 -20 85 -2 14 -16 70 -29 125 -14 55 -27 107 -29 115
-9 41 -87 318 -95 337 -6 15 -5 23 3 26 24 8 89 -3 130 -22z"/>
</g>
</svg>
