<!DOCTYPE svg PUBLIC "-//W3C//DTD SVG 1.1//EN" "http://www.w3.org/Graphics/SVG/1.1/DTD/svg11.dtd">
<!-- Uploaded to: SVG Repo, www.svgrepo.com, Transformed by: SVG Repo Mixer Tools -->
<svg width="256px" height="256px" viewBox="-76.8 -76.8 665.60 665.60" xmlns="http://www.w3.org/2000/svg" fill="#000000" stroke="#000000">
<g id="SVGRepo_bgCarrier" stroke-width="0" transform="translate(0,0), scale(1)">
<path transform="translate(-76.8, -76.8), scale(20.8)" d="M16,31.322940384348232C18.578546054812783,30.991427773396477,20.371313099456906,28.749932509468852,22.49716067748765,27.25341239834724C24.433116438549835,25.890569285505116,26.565275935869717,24.8184108952886,27.95876847127394,22.90439819606642C29.44076568765443,20.86882109730475,30.81620322858442,18.51475812645759,30.69018164401253,16C30.565406041573688,13.51010542136357,28.430643906453245,11.698719596855113,27.286229280545626,9.483892486741148C26.077888507140322,7.145346786076377,25.84738176012277,4.166236089085634,23.7522335673372,2.572737589231057C21.611642311395556,0.9446766401820246,18.669840315564826,0.5764487662605706,16.000000000000004,0.8999701229234525C13.454738579397029,1.2083954707072073,11.365787809403411,2.8638537578237067,9.261551454042399,4.328664754212802C7.303651637734726,5.6916072646626965,5.041590446964419,6.944430763228128,4.142657132415341,9.154159903526299C3.2665874054267765,11.307686503695486,4.438387158271331,13.67631274407999,4.5135704067846145,15.999999999999998C4.585893608719382,18.235291849798912,3.9303762682264525,20.453983025895457,4.577529956778424,22.594766154264402C5.317423540658735,25.042332673901416,6.429259388826086,27.505509319675458,8.46096859375635,29.057985435471426C10.582063900315122,30.678763544252227,13.352341392782494,31.663338499847974,16,31.322940384348232" fill="#fff5c2" strokewidth="0"/>
</g>
<g id="SVGRepo_tracerCarrier" stroke-linecap="round" stroke-linejoin="round"/>
<g id="SVGRepo_iconCarrier"> <path fill="var(--ci-primary-color, #000000)" d="M304,136H128V288h80v88H384V224H304ZM160,256V168H272v88H160Zm192,0v88H240V288h64V256Z" class="ci-primary"/> <path fill="var(--ci-primary-color, #000000)" d="M400,48H112V16H16v96H48V400H16v96h96V464H400v32h96V400H464V112h32V16H400ZM48,48H80V80H48ZM80,464H48V432H80Zm384,0H432V432h32ZM432,48h32V80H432Zm0,352H400v32H112V400H80V112h32V80H400v32h32Z" class="ci-primary"/> </g>
</svg>