<!DOCTYPE svg PUBLIC "-//W3C//DTD SVG 1.1//EN" "http://www.w3.org/Graphics/SVG/1.1/DTD/svg11.dtd">
<!-- Uploaded to: SVG Repo, www.svgrepo.com, Transformed by: SVG Repo Mixer Tools -->
<svg fill="#ffd000" height="64px" width="64px" version="1.1" id="Layer_1" xmlns="http://www.w3.org/2000/svg" xmlns:xlink="http://www.w3.org/1999/xlink" viewBox="0 0 512.001 512.001" xml:space="preserve" stroke="#ffd000" transform="matrix(1, 0, 0, -1, 0, 0)rotate(0)">
<g id="SVGRepo_bgCarrier" stroke-width="0"/>
<g id="SVGRepo_tracerCarrier" stroke-linecap="round" stroke-linejoin="round" stroke="#CCCCCC" stroke-width="2.0480039999999997"/>
<g id="SVGRepo_iconCarrier"> <g> <g> <path d="M90.833,87.842c-2.22-3.566-6.911-4.656-10.474-2.434c-3.073,1.914-5.932,4.189-8.496,6.761 c-2.966,2.975-2.579,7.453,0.017,10.753c3.653,4.645,9.268,1.473,10.753-0.017c1.742-1.748,3.681-3.291,5.766-4.589 C91.964,96.097,93.054,91.408,90.833,87.842z"/> </g> </g> <g> <g> <path d="M461.283,169.159c0-4.2-3.404-7.604-7.604-7.604H437.61v-21.291h16.069c4.2,0,7.604-3.404,7.604-7.604 c0-4.2-3.404-7.604-7.604-7.604H437.61v-11.194c0-25.982-21.138-47.121-47.12-47.121s-47.121,21.139-47.121,47.121v11.194h-15.41 c-4.2,0-7.604,3.404-7.604,7.604c0,4.2,3.404,7.604,7.604,7.604h15.41v21.291h-15.41c-4.2,0-7.604,3.404-7.604,7.604 s3.404,7.604,7.604,7.604h15.41v32.589c0,18.756-12.87,32.9-29.936,32.9c-10.234,0-20.264,1.236-29.936,3.618V47.121 C283.496,21.139,262.358,0,236.376,0c-25.938,0-47.044,21.067-47.116,46.988h-15.406c-4.2,0-7.604,3.404-7.604,7.604 c0,4.2,3.404,7.604,7.604,7.604h15.403v20.277h-15.403c-4.2,0-7.604,3.404-7.604,7.604c0,4.2,3.404,7.604,7.604,7.604h15.403 v20.277h-15.403c-4.2,0-7.604,3.404-7.604,7.604s3.404,7.604,7.604,7.604h15.403v47.359 c-21.557-7.991-36.895-30.158-36.895-55.097c0-25.982-21.139-47.12-47.121-47.12c-4.2,0-7.604,3.404-7.604,7.604 s3.404,7.604,7.604,7.604c17.597,0,31.913,14.316,31.913,31.912c0,17.448,5.935,34.371,16.71,47.655 c9.306,11.471,21.698,19.624,35.392,23.416v65.025C73.843,239.115,73.528,121.274,73.922,119.26 c0.807-4.121-1.881-8.117-6.002-8.923c-4.123-0.811-8.116,1.881-8.923,6.002c-0.582,2.976-2.474,36.852,7.909,60.713h-8.584 c-4.2,0-7.604,3.404-7.604,7.604s3.404,7.604,7.604,7.604h14.872c3.132,6.561,6.732,12.901,10.782,18.976h-8.419 c-4.2,0-7.604,3.404-7.604,7.604s3.404,7.604,7.604,7.604h19.984c22.912,29.556,58.752,46.143,93.714,50.415v188.022 c0,25.982,21.138,47.12,47.12,47.12c25.982,0,47.121-21.138,47.121-47.12v-17.417h13.687c4.2,0,7.604-3.404,7.604-7.604 s-3.404-7.604-7.604-7.604h-13.687v-20.277h13.687c4.2,0,7.604-3.404,7.604-7.604s-3.404-7.604-7.604-7.604h-13.687v-27.378 c0-18.756,12.87-32.9,29.936-32.9c34.158,0,65.842-13.563,89.214-38.192c21.669-22.836,33.976-52.904,34.9-85.039h16.132 c4.2,0,7.604-3.404,7.604-7.604s-3.404-7.604-7.604-7.604H437.61v-21.291h16.069v0 C457.88,176.763,461.283,173.359,461.283,169.159z M422.404,209.35L422.404,209.35c-0.001,29.687-10.934,57.559-30.788,78.48 c-20.471,21.573-48.236,33.453-78.182,33.453c-25.737,0-45.144,20.682-45.144,48.108v95.489c0,17.596-14.316,31.912-31.913,31.912 c-17.596,0-31.912-14.316-31.912-31.912v-95.488c0-28.971,10.473-56.35,29.491-77.092c2.838-3.095,2.63-7.905-0.466-10.744 c-3.095-2.839-7.905-2.631-10.744,0.466c-7.202,7.855-13.318,16.545-18.281,25.85V47.121c0-17.597,14.316-31.913,31.912-31.913 c17.597,0,31.913,14.316,31.913,31.913v203.576c-9.343,3.659-18.234,8.461-26.492,14.394c-3.411,2.451-4.189,7.201-1.739,10.612 c2.448,3.41,7.202,4.189,10.612,1.739c18.198-13.074,39.901-19.984,62.763-19.984c25.737,0,45.144-20.682,45.144-48.108v-95.49 c0-17.597,14.316-31.913,31.913-31.913c17.596,0,31.912,14.316,31.912,31.913V209.35z"/> </g> </g> <g> <g> <path d="M120.989,143.503c-1.419-1.419-3.377-2.23-5.384-2.23c-1.998,0-3.955,0.811-5.373,2.23 c-1.419,1.409-2.231,3.376-2.231,5.373c0,2.007,0.811,3.964,2.231,5.384c1.419,1.409,3.375,2.22,5.373,2.22 c2.007,0,3.964-0.811,5.384-2.22c1.409-1.419,2.22-3.376,2.22-5.384C123.209,146.879,122.399,144.922,120.989,143.503z"/> </g> </g> <g> <g> <path d="M136.197,192.68c-1.419-1.419-3.377-2.23-5.384-2.23c-1.998,0-3.955,0.811-5.373,2.23c-1.419,1.409-2.23,3.376-2.23,5.373 c0,2.007,0.811,3.964,2.23,5.384c1.419,1.409,3.375,2.22,5.373,2.22c2.007,0,3.964-0.812,5.384-2.22 c1.409-1.419,2.22-3.376,2.22-5.384C138.417,196.056,137.607,194.1,136.197,192.68z"/> </g> </g> <g> <g> <path d="M241.76,49.219c-1.419-1.419-3.377-2.231-5.384-2.231c-1.998,0-3.955,0.811-5.373,2.231 c-1.419,1.409-2.231,3.376-2.231,5.373c0,2.007,0.811,3.964,2.231,5.384c1.419,1.409,3.375,2.22,5.373,2.22 c2.006,0,3.964-0.812,5.384-2.22c1.409-1.419,2.22-3.376,2.22-5.384C243.98,52.595,243.17,50.638,241.76,49.219z"/> </g> </g> <g> <g> <path d="M251.895,92.109c-1.419-1.419-3.377-2.23-5.384-2.23c-1.998,0-3.955,0.811-5.373,2.23c-1.419,1.409-2.23,3.376-2.23,5.373 c0,2.007,0.811,3.964,2.23,5.384c1.419,1.409,3.375,2.22,5.373,2.22c2.007,0,3.964-0.811,5.384-2.22 c1.409-1.419,2.22-3.376,2.22-5.384C254.116,95.485,253.306,93.529,251.895,92.109z"/> </g> </g> <g> <g> <path d="M391.44,248.526c-3.65-2.077-8.292-0.804-10.371,2.845c-0.828,1.455-1.721,2.913-2.651,4.33 c-2.305,3.512-1.437,8.405,2.185,10.53c5.624,3.3,9.069,0.04,10.53-2.186c1.104-1.685,2.166-3.417,3.152-5.148 C396.362,255.248,395.089,250.604,391.44,248.526z"/> </g> </g> <g> <g> <path d="M375.981,271.645c-2.816-3.115-7.624-3.354-10.741-0.54c-14.097,12.745-32.495,19.764-51.806,19.764 c-4.2,0-7.604,3.404-7.604,7.604c0,4.2,3.404,7.604,7.604,7.604c23.087,0,45.108-8.414,62.007-23.691 C378.555,279.568,378.796,274.76,375.981,271.645z"/> </g> </g> <g> <g> <path d="M241.76,422.864c-1.419-1.419-3.377-2.231-5.384-2.231c-1.998,0-3.955,0.811-5.373,2.231 c-1.419,1.409-2.231,3.376-2.231,5.373c0,2.008,0.811,3.964,2.231,5.384c1.419,1.409,3.375,2.22,5.373,2.22 c2.006,0,3.964-0.811,5.384-2.22c1.409-1.419,2.22-3.376,2.22-5.384C243.98,426.241,243.17,424.284,241.76,422.864z"/> </g> </g> <g> <g> <path d="M251.895,363.008c-1.419-1.419-3.377-2.23-5.384-2.23c-1.998,0-3.955,0.811-5.373,2.23 c-1.419,1.409-2.23,3.376-2.23,5.373c0,2.007,0.811,3.964,2.23,5.384c1.419,1.409,3.375,2.22,5.373,2.22 c2.007,0,3.964-0.811,5.384-2.22c1.409-1.419,2.22-3.376,2.22-5.384C254.116,366.384,253.306,364.427,251.895,363.008z"/> </g> </g> <g> <g> <path d="M226.552,386.794c-1.419-1.419-3.377-2.231-5.384-2.231c-1.998,0-3.955,0.811-5.373,2.231 c-1.419,1.409-2.23,3.376-2.23,5.373c0,2.007,0.811,3.964,2.23,5.384c1.419,1.409,3.375,2.22,5.373,2.22 c2.006,0,3.964-0.812,5.384-2.22c1.409-1.419,2.22-3.376,2.22-5.384C228.772,390.17,227.962,388.214,226.552,386.794z"/> </g> </g> <g> <g> <path d="M404.992,120.189c-1.419-1.419-3.377-2.23-5.384-2.23c-1.998,0-3.955,0.811-5.373,2.23 c-1.419,1.409-2.231,3.376-2.231,5.373c0,2.007,0.811,3.964,2.231,5.384c1.419,1.409,3.375,2.22,5.373,2.22 c2.006,0,3.964-0.812,5.384-2.22c1.409-1.419,2.22-3.376,2.22-5.384C407.212,123.565,406.402,121.609,404.992,120.189z"/> </g> </g> <g> <g> <path d="M385.728,163.785c-1.419-1.419-3.377-2.23-5.384-2.23c-1.998,0-3.955,0.811-5.373,2.23 c-1.419,1.409-2.231,3.376-2.231,5.373c0,2.007,0.811,3.964,2.231,5.384c1.419,1.409,3.375,2.22,5.373,2.22 c2.006,0,3.964-0.812,5.384-2.22c1.409-1.419,2.22-3.376,2.22-5.384C387.948,167.161,387.138,165.205,385.728,163.785z"/> </g> </g> <g> <g> <path d="M404.992,200.284c-1.419-1.419-3.377-2.23-5.384-2.23c-1.998,0-3.955,0.811-5.373,2.23 c-1.419,1.409-2.231,3.376-2.231,5.373c0,2.007,0.811,3.964,2.231,5.384c1.419,1.409,3.375,2.22,5.373,2.22 c2.006,0,3.964-0.812,5.384-2.22c1.409-1.419,2.22-3.376,2.22-5.384C407.212,203.66,406.402,201.704,404.992,200.284z"/> </g> </g> </g>
</svg>