<?xml version="1.0" encoding="UTF-8"?>
<svg xmlns="http://www.w3.org/2000/svg" xmlns:xlink="http://www.w3.org/1999/xlink" width="30px" height="30px" viewBox="0 0 30 30" version="1.1">
<g id="surface1">
<path style=" stroke:none;fill-rule:nonzero;fill:rgb(100%,89.803922%,67.843137%);fill-opacity:1;" d="M 18.207031 27.980469 C 20.390625 28.246094 22.476562 29.910156 24.578125 29.246094 C 26.703125 28.574219 28.253906 26.5625 29.140625 24.519531 C 29.992188 22.554688 29.734375 20.316406 29.367188 18.207031 C 29.042969 16.328125 28.042969 14.722656 27.152344 13.039062 C 26.230469 11.289062 25.65625 9.242188 24.03125 8.109375 C 22.371094 6.949219 20.191406 6.378906 18.207031 6.785156 C 16.292969 7.179688 15.320312 9.308594 13.617188 10.257812 C 11.871094 11.226562 9.300781 10.769531 8.128906 12.386719 C 6.972656 13.988281 7.859375 16.230469 7.871094 18.207031 C 7.878906 20.171875 7.300781 22.234375 8.183594 23.992188 C 9.078125 25.773438 10.824219 27.046875 12.675781 27.785156 C 14.417969 28.476562 16.34375 27.75 18.207031 27.980469 "/>
<path style="fill:none;stroke-width:1.5;stroke-linecap:round;stroke-linejoin:round;stroke:rgb(0%,0%,0%);stroke-opacity:1;stroke-miterlimit:4;" d="M 20.99925 11.000625 L 20.99925 19.999875 C 20.99925 20.55075 20.55075 20.99925 19.999875 20.99925 L 4.000125 20.99925 C 3.44925 20.99925 3.00075 20.55075 3.00075 19.999875 L 3.00075 4.000125 C 3.00075 3.44925 3.44925 3.00075 4.000125 3.00075 L 16.002375 3.00075 " transform="matrix(0.801282,0,0,0.801282,5.384615,5.384615)"/>
<path style="fill:none;stroke-width:1.5;stroke-linecap:round;stroke-linejoin:round;stroke:rgb(0%,0%,0%);stroke-opacity:1;stroke-miterlimit:4;" d="M 20.99925 4.9995 L 12 13.99875 L 7.997625 10.00125 " transform="matrix(0.801282,0,0,0.801282,5.384615,5.384615)"/>
</g>
</svg>
