<!DOCTYPE svg PUBLIC "-//W3C//DTD SVG 1.1//EN" "http://www.w3.org/Graphics/SVG/1.1/DTD/svg11.dtd">
<!-- Uploaded to: SVG Repo, www.svgrepo.com, Transformed by: SVG Repo Mixer Tools -->
<svg width="256px" height="256px" viewBox="-133.12 -133.12 1290.24 1290.24" class="icon" version="1.1" xmlns="http://www.w3.org/2000/svg" fill="#000000" stroke="#000000" stroke-width="0.01024">
<g id="SVGRepo_bgCarrier" stroke-width="0" transform="translate(0,0), scale(1)">
<path transform="translate(-133.12, -133.12), scale(40.32)" d="M16,27.222445258249838C19.83471094000218,27.637479870780677,24.23368533151297,29.677204890538178,27.130529559544,27.130529559544C30.058360929914624,24.556612794505625,28.751386747189596,19.898338600432336,28.765536059935886,16C28.779771928993497,12.077813894351573,30.181668895458788,7.350128965442767,27.211622076980845,4.7883779230191585C24.269224722498603,2.2504753407520615,19.860405613012535,4.546728215687035,16,4.989356967310112C12.849750948365998,5.350560152883765,9.65126501715099,5.2188468411481885,7.0949299340319705,7.094929934031967C4.079821890189319,9.307704488363632,1.007756964920706,12.26006259135125,0.9969901765386275,15.999999999999996C0.9862098103644622,19.744653772595175,4.044915794797987,22.71350479518584,7.043508846240059,24.956491153759934C9.607078015300583,26.87407402573337,12.81717977189604,26.87796543153161,16,27.222445258249838" fill="#fff5c2" strokewidth="0"/>
</g>
<g id="SVGRepo_tracerCarrier" stroke-linecap="round" stroke-linejoin="round" stroke="#CCCCCC" stroke-width="6.144"/>
<g id="SVGRepo_iconCarrier">
<path d="M511.3 676.9m-10 0a10 10 0 1 0 20 0 10 10 0 1 0-20 0Z" fill="#ffd500"/>
<path d="M960 756V138.5H64V756h320.1v85.5H256.2v44h511.9v-44h-128V756H960zM108 182.5h808v427.1H108V182.5z m488.1 659h-168V756h168v85.5zM108 712v-82.5h808V712H108z" fill="#39393A"/>
<path d="M167.536 327.703l90.72-90.721 14.143 14.142-90.721 90.72zM172.959 423.469l181.159-181.16 14.142 14.143L187.1 437.61z" fill="#ffd500"/>
</g>
</svg>