<!DOCTYPE svg PUBLIC "-//W3C//DTD SVG 1.1//EN" "http://www.w3.org/Graphics/SVG/1.1/DTD/svg11.dtd">
<!-- Uploaded to: SVG Repo, www.svgrepo.com, Transformed by: SVG Repo Mixer Tools -->
<svg fill="#000000" version="1.1" id="Capa_1" xmlns="http://www.w3.org/2000/svg" xmlns:xlink="http://www.w3.org/1999/xlink" width="256px" height="256px" viewBox="-61.8 -61.8 466.93 466.93" xml:space="preserve" stroke="#000000">
<g id="SVGRepo_bgCarrier" stroke-width="0" transform="translate(0,0), scale(1)">
<path transform="translate(-61.8, -61.8), scale(14.5915625)" d="M16,26.894801408052444C18.188382284566792,26.63616838296384,20.237985095528316,28.65344381348437,22.388364299312705,28.172011216952036C24.630596170220972,27.67001440181396,26.573557846582528,26.08974750158401,27.918182188581525,24.22652718604714C29.272371686017063,22.350052616980893,29.817613066728146,20.00413776514424,29.950106245316633,17.69384956646759C30.078370119203324,15.457307902105073,29.45243252086711,13.294062303552092,28.66543615113623,11.196633651176928C27.87649211781313,9.0940142691102,26.819145043787422,7.143740080446831,25.353150438983803,5.442475617688181C23.749417692784064,3.5813681348012043,22.146630809191297,1.317874410300602,19.73758950641924,0.8360032806097095C17.32724807898699,0.35387209205721615,15.027173993838726,1.9358290663222222,12.77781468540898,2.927080286423184C10.813179784861447,3.7928587038251447,8.857999403176352,4.714205627825919,7.387476508176581,6.278470623205521C5.978946950873232,7.7767903630335065,5.251185999918142,9.724706146122568,4.565114013757203,11.663319770948451C3.8903636857773884,13.569942116071509,3.3280314878076567,15.508205737950984,3.405861088351724,17.529205323628965C3.487341125640701,19.6449957227948,4.175169091128366,21.63644786744075,5.023886835208419,23.576263889789935C6.006447927298129,25.821990178261117,6.420340297962881,29.072474555323076,8.766711134728034,29.78188047494672C11.288313767868589,30.544266286626293,13.383873830404672,27.20398716139528,16,26.894801408052444" fill="#fff5c2" strokewidth="0"/>
</g>
<g id="SVGRepo_tracerCarrier" stroke-linecap="round" stroke-linejoin="round"/>
<g id="SVGRepo_iconCarrier"> <g> <path d="M88.856,42.036c6.48-13.777,44.764-39.223,82.252-39.223c12.042,0,22.878,2.575,32.368,7.674 c-14.53,1.344-40.856,7.5-54.373,33.5c-0.79,1.527-0.809,3.344-0.039,4.881l12.972,25.938l-26.324,24.128 c-4.436-2.354-12.499-5.806-23.006-6.761c-1.157-0.107-2.259-0.152-3.302-0.152c-7.782,0-13.223,2.727-16.685,5.806L67.443,75.583 C72.392,69.78,81.25,58.194,88.856,42.036z"/> <g> <polygon points="77.885,118.243 50.861,94.339 37.884,109.045 65.843,132.865 "/> <path d="M343.217,247.772l-90.931-87.235l-70.068-68.358l-29.02,25.334l154.449,165.099c3.789,1.286,13.938-2.116,23.58-11.754 C340.592,261.494,344.024,251.914,343.217,247.772z"/> <path d="M325.212,299.531H40.987v-69.083l13.149-9.144c1.924-1.344,2.761-3.779,2.058-6.027c-0.704-2.236-2.785-3.769-5.129-3.769 H20.157c-2.349,0-4.422,1.532-5.129,3.769c-0.704,2.248,0.131,4.684,2.061,6.027l13.147,9.144v69.083H5.375 c-2.971,0-5.375,2.404-5.375,5.376v30.235c0,2.977,2.404,5.376,5.375,5.376h319.837c2.971,0,5.374-2.399,5.374-5.376v-30.235 C330.586,301.935,328.183,299.531,325.212,299.531z"/> </g> </g> </g>
</svg>