<!DOCTYPE svg PUBLIC "-//W3C//DTD SVG 1.1//EN" "http://www.w3.org/Graphics/SVG/1.1/DTD/svg11.dtd">
<!-- Uploaded to: SVG Repo, www.svgrepo.com, Transformed by: SVG Repo Mixer Tools -->
<svg fill="#000000" height="256px" width="256px" version="1.1" id="Layer_1" xmlns="http://www.w3.org/2000/svg" xmlns:xlink="http://www.w3.org/1999/xlink" viewBox="-122.88 -122.88 737.28 737.28" xml:space="preserve" stroke="#000000">
<g id="SVGRepo_bgCarrier" stroke-width="0">
<path transform="translate(-122.88, -122.88), scale(23.04)" d="M16,27.304796550008987C17.68512296223948,26.91638043007766,19.699924597993043,27.57573171059868,21.06061972115394,26.50848513089209C22.452984525821428,25.41639877723982,21.79749962218563,22.844274546330663,23.146735547993437,21.69933141690467C24.96893203182692,20.153040434932603,28.199361341808014,20.958900458935457,29.746701661408867,19.137594948604807C31.195439092746543,17.43235051511249,32.04784063784778,14.509557624639353,30.872740897558586,12.605393943836752C29.53525122306999,10.438089182980528,26.115081782922783,10.970953188871317,23.91510408358134,9.687915123109434C22.57625959534692,8.90709427976431,21.781517472422685,7.5022457809661365,20.537482976943778,6.577819511793505C19.09686107223918,5.507311629982905,17.781510318558286,4.024474863686832,16,3.8063015788793564C14.20802078221952,3.5868462166638344,12.416832258196724,4.427456843438086,10.89376727590249,5.396798492533673C9.437526136373213,6.323610679854676,8.726371896935337,8.007534600272933,7.496218397864519,9.218460467429175C6.093999212504383,10.598762587658797,3.5153539383463337,11.132562167883911,3.110793134608647,13.058122642909701C2.703830751287238,14.995113752542991,5.367380086526573,16.411532269817894,5.5713177882540865,18.38027866131964C5.814533088674744,20.72819785921743,3.534011119606058,23.064711349577234,4.375791787114334,25.269996716604602C5.165258370826941,27.33823036940631,7.494999387778899,28.75097812533013,9.67562798038138,29.132693818621455C11.864611406319703,29.51587201268432,13.834512869750622,27.803935264358284,16,27.304796550008987" fill="#fff5c2" strokewidth="0"/>
</g>
<g id="SVGRepo_tracerCarrier" stroke-linecap="round" stroke-linejoin="round"/>
<g id="SVGRepo_iconCarrier"> <g> <g> <polygon points="341.834,75.025 254.212,75.025 254.212,153.526 371.893,153.526 "/> </g> </g> <g> <g> <path d="M173.444,170.453c-3.504,9.829-12.81,16.925-23.829,16.925c-5.656,0-10.904,2.793-14.049,7.471 c-1.876,2.801-2.876,6.074-2.876,9.454c0,0.065-0.018,0.125-0.019,0.19l104.616,273.099V170.453H173.444z"/> </g> </g> <g> <g> <path d="M122.285,224.69c-4.21,3.104-9.361,5-14.982,5c-14,0-25.389-11.387-25.389-25.387c0-4.52-1.743-8.752-4.913-11.917 c-3.231-3.232-7.496-5.008-12.012-5.008c-11.018,0-20.324-7.096-23.828-16.925H0.007l214.875,295.967L122.285,224.69z"/> </g> </g> <g> <g> <path d="M56.952,74.992L0,153.526h41.161c3.504-9.83,12.81-16.925,23.828-16.925c9.334,0,16.925-7.596,16.925-16.926 c0-13.999,11.389-25.387,25.389-25.387c5.613,0,10.758,1.89,14.966,4.987l9.291-24.284H56.952z"/> </g> </g> <g> <g> <path d="M149.683,74.992l-17.015,44.473c0.001,0.072,0.022,0.14,0.022,0.212c0,3.282,1.054,6.735,2.893,9.479 c0.549,0.827,1.219,1.628,2.008,2.414c3.293,3.297,7.446,5.033,12.024,5.033c11.018,0,20.324,7.096,23.829,16.925h63.843V74.992 H149.683z"/> </g> </g> <g> <g> <path d="M463.478,114.874c-2.694,11.125-12.669,19.439-24.61,19.439c-14,0-25.388-11.389-25.388-25.388 c0-4.611-1.703-8.727-4.917-11.909c-3.339-3.381-7.48-5.1-12.099-5.1c-11.019,0-20.324-7.096-23.828-16.925h-12.69l30.099,78.536 H491.52L463.478,114.874z"/> </g> </g> <g> <g> <polygon points="390.02,170.453 345.783,285.904 276.633,466.386 491.468,170.453 "/> </g> </g> <g> <g> <polygon points="254.212,170.453 254.212,477.594 371.892,170.453 "/> </g> </g> <g> <g> <path d="M122.183,147.002c-2.242-2.242-4.382-4.79-6.217-7.543c-5.403-8.053-8.665-17.94-8.665-28.44 c0,28.134-22.833,50.968-50.968,50.968c14.068,0,26.809,5.709,36.085,14.984c9.174,9.174,14.882,21.916,14.882,35.983 c0-10.499,3.262-20.387,8.665-28.44c9.174-13.66,24.769-22.528,42.302-22.528C144.201,161.985,131.459,156.276,122.183,147.002z"/> </g> </g> <g> <g> <path d="M454.232,51.055c-9.466-9.466-15.356-22.615-15.356-37.13c0,29.032-23.562,52.593-52.698,52.593 c14.621,0,27.769,5.89,37.235,15.461c9.572,9.469,15.463,22.721,15.463,37.236c0-13.253,4.943-25.453,13.043-34.712 c9.677-11.042,23.771-17.985,39.549-17.985C476.952,66.518,463.804,60.627,454.232,51.055z"/> </g> </g> </g>
</svg>