<!DOCTYPE svg PUBLIC "-//W3C//DTD SVG 1.1//EN" "http://www.w3.org/Graphics/SVG/1.1/DTD/svg11.dtd">
<!-- Uploaded to: SVG Repo, www.svgrepo.com, Transformed by: SVG Repo Mixer Tools -->
<svg fill="#000000" version="1.1" id="Capa_1" xmlns="http://www.w3.org/2000/svg" xmlns:xlink="http://www.w3.org/1999/xlink" width="256px" height="256px" viewBox="-50.25 -50.25 435.49 435.49" xml:space="preserve">
<g id="SVGRepo_bgCarrier" stroke-width="0">
<path transform="translate(-50.25, -50.25), scale(13.6090625)" d="M16,29.285189740359783C18.64856751631284,29.493559631638007,21.707552995124452,31.159777607395633,23.82959855986493,29.561262508554172C26.02062812669859,27.91078247043114,24.678615796123715,24.17687312414342,25.98406022474417,21.764299858361483C27.235123646961732,19.45222735640952,30.535485745840536,18.55171825687265,31.167603518281666,16C31.81242834349354,13.396986209352168,31.119127738590784,10.297191255594939,29.316577955835815,8.31167013251356C27.529997751605407,6.343739611251102,24.20828223045301,7.098548407052041,21.896199114088503,5.787483562856114C19.610574003331674,4.491421709147098,18.62452024435924,0.8860222931548764,16.000000000000004,0.76051547058991C13.407009168804699,0.6365164117665454,11.726028642520452,3.501993390261362,9.768975668187656,5.207549274103096C8.13888045323014,6.628164107506309,6.627837952399308,8.093760201194744,5.4816119495285225,9.927205827619343C4.303782180273721,11.811203253697933,3.369851660191996,13.805555583950174,3.0217956709010263,15.999999999999998C2.633743108926388,18.446617222400914,2.3059974651738147,21.05581121277069,3.36104155943333,23.297106057937647C4.441857790875454,25.593150233990972,6.557423783002298,27.296298632679004,8.850765359188824,28.382837633116377C11.05907307217188,29.429089303620955,13.563910024880496,29.09353602561277,16,29.285189740359783" fill="#fff5c2" strokewidth="0"/>
</g>
<g id="SVGRepo_tracerCarrier" stroke-linecap="round" stroke-linejoin="round"/>
<g id="SVGRepo_iconCarrier"> <g> <path d="M273.171,286.963c68.544-50.185,83.231-137.087,28.151-206.244C245.631,12.175,141.591-16.589,64.479,35.431 C4.503,75.823-8.961,160.279,5.115,226.375c12.852,63.036,64.872,119.952,132.804,93.023c6.12-2.447,3.672-11.628-2.448-9.792 c-63.036,15.301-101.592-30.6-115.056-86.903C6.339,164.563,19.803,95.407,65.703,55.015 c61.2-54.468,159.121-29.376,211.752,23.256c59.363,59.364,55.08,144.432-10.404,194.003c2.448-8.567,4.284-17.136,6.12-25.703 c1.836-6.732-6.732-11.629-11.628-6.732c-23.256,22.644-49.572,40.392-78.336,55.08c-6.12,3.06-3.672,11.016,1.836,12.852 c37.943,14.076,78.948,13.464,118.116,17.137c7.956,0.611,8.567-9.792,3.672-13.465 C295.814,302.875,284.799,294.307,273.171,286.963z M251.751,290.022c-0.612,4.284,3.06,6.732,6.12,5.509 c7.344,4.283,14.076,8.567,20.808,13.464c-25.092-1.836-49.572-3.061-74.052-9.792c18.359-10.404,35.496-22.645,51.408-36.108 C254.811,271.663,253.587,280.843,251.751,290.022z"/> </g> </g>
</svg>